<svg xmlns="http://www.w3.org/2000/svg" viewBox="0 0 240 60" fill="none">
  <rect width="240" height="60" rx="10" fill="transparent"/>
  <!-- Jumboking Crown & Burger Icon -->
  <g transform="translate(10, 10)">
    <circle cx="20" cy="20" r="18" fill="#DC2626"/>
    <!-- Crown / Burger -->
    <path d="M12 21l3-6 5 4 5-4 3 6H12z" fill="#FBBF24"/>
    <circle cx="12" cy="15" r="1.5" fill="#FFF"/>
    <circle cx="20" cy="19" r="1.5" fill="#FFF"/>
    <circle cx="28" cy="15" r="1.5" fill="#FFF"/>
    <path d="M11 23h18a2 2 0 0 1 2 2v2a1 1 0 0 1-1 1H10a1 1 0 0 1-1-1v-2a2 2 0 0 1 2-2z" fill="#FBBF24"/>
  </g>
  <!-- Text: JUMBOKING -->
  <text x="56" y="32" font-family="'Impact', 'Arial Black', sans-serif" font-size="22" font-weight="900" letter-spacing="1.5" fill="#DC2626">JUMBOKING</text>
  <text x="57" y="46" font-family="'Inter', sans-serif" font-size="7.5" font-weight="800" letter-spacing="2.5" fill="#EA580C">BURGER • ON THE GO</text>
</svg>
